{"title":"Grand Masti 2 2013 Hindi Movies HDSCamRip X264 New Source +Sampl","uid":8915723,"size":744457562,"categoryP":"video","categoryS":"movies","magnet":"?xt=urn:btih:9fa905c2a128d435a9a0214eecc566d4155a6523&amp;dn=Grand+Masti+2+2013+Hindi+Movies+HDSCamRip+X264+New+Source+%2BSampl&amp;tr=udp%3A%2F%2Ftracker.openbittorrent.com%3A80&amp;tr=udp%3A%2F%2Fopen.demonii.com%3A1337&amp;tr=udp%3A%2F%2Ftracker.coppersurfer.tk%3A6969&amp;tr=udp%3A%2F%2Fexodus.desync.com%3A6969","seeders":3,"leechers":1,"uploader":"basicssom","files":2,"time":1379136900,"description":" &lt;a href=&quot;http://users2.jabry.com/myimghost/logo.jpg&quot; rel=&quot;nofollow&quot; target=&quot;_NEW&quot;&gt;http://users2.jabry.com/myimghost/logo.jpg&lt;/a&gt;\n\nGrand Masti 2 2013 Hindi Movies HDSCamRip X264 New Source +Sample ~ â˜»rDXâ˜»\n\nPlease check SCREEN SHOTS first :\n &lt;a href=&quot;\nhttp://myimghosting.serveftp.com/13/GrandMasti.html&quot; rel=&quot;nofollow&quot; target=&quot;_NEW&quot;&gt;\nhttp://myimghosting.serveftp.com/13/GrandMasti.html&lt;/a&gt;\n &lt;a href=&quot;\nhttp://myimghost.cwahi.net/GrandMasti.html&quot; rel=&quot;nofollow&quot; target=&quot;_NEW&quot;&gt;\nhttp://myimghost.cwahi.net/GrandMasti.html&lt;/a&gt;\n\nAll rDX torrents are Seeding From the 1Gbps Seedbox 24X7\n &lt;a href=&quot;\nhttp://users2.jabry.com/myimghost/GrandMasti/GrandMasti.jpg&quot; rel=&quot;nofollow&quot; target=&quot;_NEW&quot;&gt;\nhttp://users2.jabry.com/myimghost/GrandMasti/GrandMasti.jpg&lt;/a&gt;\n &lt;a href=&quot;\nhttp://users2.jabry.com/myimghost/GrandMasti/GrandMasti1.jpg&quot; rel=&quot;nofollow&quot; target=&quot;_NEW&quot;&gt;\nhttp://users2.jabry.com/myimghost/GrandMasti/GrandMasti1.jpg&lt;/a&gt;\n &lt;a href=&quot;\nhttp://users2.jabry.com/myimghost/GrandMasti/GrandMasti2.jpg&quot; rel=&quot;nofollow&quot; target=&quot;_NEW&quot;&gt;\nhttp://users2.jabry.com/myimghost/GrandMasti/GrandMasti2.jpg&lt;/a&gt;\n\nFormat                                   : Matroska\nFormat version                           : Version 2\nFile size                                : 699 MiB\nDuration                                 : 2h 5mn\nOverall bit rate mode                    : Variable\nOverall bit rate                         : 776 Kbps\nEncoded date                             : UTC 2013-09-13 11:19:53\nWriting application                      : TMPGEnc Video Mastering Works 5 Version. 5.0.6.38\nWriting library                          : TMPGEnc Video Mastering Works 5 Version. 5.0.6.38\n\nVideo\nID                                       : 2\nFormat                                   : AVC\nFormat/Info                              : Advanced Video Codec\nFormat profile                           : &lt;a class=&quot;__cf_email__&quot; href=&quot;/cdn-cgi/l/email-protection&quot; data-cfemail=&quot;3971505e5179750a1709&quot;&gt;[email&amp;#160;protected]&lt;/a&gt;&lt;script cf-hash='f9e31' type=&quot;text/javascript&quot;&gt;\n/* &lt;![CDATA[ */!function(){try{var t=&quot;currentScript&quot;in document?document.currentScript:function(){for(var t=document.getElementsByTagName(&quot;script&quot;),e=t.length;e--;)if(t[e].getAttribute(&quot;cf-hash&quot;))return t[e]}();if(t&amp;&amp;t.previousSibling){var e,r,n,i,c=t.previousSibling,a=c.getAttribute(&quot;data-cfemail&quot;);if(a){for(e=&quot;&quot;,r=parseInt(a.substr(0,2),16),n=2;a.length-n;n+=2)i=parseInt(a.substr(n,2),16)^r,e+=String.fromCharCode(i);e=document.createTextNode(e),c.parentNode.replaceChild(e,c)}}}catch(u){}}();/* ]]&gt; */&lt;/script&gt;\nFormat settings, CABAC                   : Yes\nFormat settings, ReFrames                : 3 frames\nCodec ID                                 : V_MPEG4/ISO/AVC\nDuration                                 : 2h 5mn\nBit rate mode                            : Variable\nBit rate                                 : 390 Kbps\nMaximum bit rate                         : 8 000 Kbps\nWidth                                    : 352 pixels\nHeight                                   : 200 pixels\nDisplay aspect ratio                     : 1.920\nFrame rate mode                          : Constant\nFrame rate                               : 25.000 fps\nStandard                                 : NTSC\nColor space                              : YUV\nChroma subsampling                       : 4:2:0\nBit depth                                : 8 bits\nScan type                                : Progressive\nBits/(Pixel*Frame)                       : 0.222\nStream size                              : 339 MiB (49%)\nWriting library                          : x264 core 114\nDefault                                  : Yes\nForced                                   : No\nColor primaries                          : BT.601 PAL\nTransfer characteristics                 : BT.470 System B, BT.470 System G\nMatrix coefficients                      : BT.601\n\nAudio\nID                                       : 1\nFormat                                   : AC-3\nFormat/Info                              : Audio Coding 3\nMode extension                           : CM (complete main)\nFormat settings, Endianness              : Big\nCodec ID                                 : A_AC3\nDuration                                 : 2h 5mn\nBit rate mode                            : Constant\nBit rate                                 : 384 Kbps\nChannel(s)                               : 6 channels\nChannel positions                        : Front: L C R, Side: L R, LFE\nSampling rate                            : 48.0 KHz\nBit depth                                : 16 bits\nCompression mode                         : Lossy\nStream size                              : 346 MiB (49%)\nDefault                                  : Yes\nForced                                   : No","torrent":{"xt":"urn:btih:9fa905c2a128d435a9a0214eecc566d4155a6523","amp;dn":"Grand+Masti+2+2013+Hindi+Movies+HDSCamRip+X264+New+Source+%2BSampl","amp;tr":["udp%3A%2F%2Ftracker.openbittorrent.com%3A80","udp%3A%2F%2Fopen.demonii.com%3A1337","udp%3A%2F%2Ftracker.coppersurfer.tk%3A6969","udp%3A%2F%2Fexodus.desync.com%3A6969"],"infoHash":"9fa905c2a128d435a9a0214eecc566d4155a6523","infoHashBuffer":{"type":"Buffer","data":[159,169,5,194,161,40,212,53,169,160,33,78,236,197,102,212,21,90,101,35]},"announce":[],"urlList":[]}}